<mxfile host="app.diagrams.net" modified="2023-09-23T07:33:13.138Z" agent="Mozilla/5.0 (Windows NT 10.0; Win64; x64) AppleWebKit/537.36 (KHTML, like Gecko) Chrome/117.0.0.0 Safari/537.36 Edg/117.0.2045.36" etag="tm-n7lk-9euhOAqQzIeV" version="21.8.1" type="github">
  <diagram name="PÃ¡gina-1" id="NOYK7J07QxXe8avJ9VmI">
    <mxGraphModel dx="2026" dy="1111" grid="1" gridSize="10" guides="1" tooltips="1" connect="1" arrows="1" fold="1" page="1" pageScale="1" pageWidth="827" pageHeight="1169" math="0" shadow="0">
      <root>
        <mxCell id="0" />
        <mxCell id="1" parent="0" />
        <mxCell id="KZxnEmZPfIo_MnsrIYCo-1" value="" style="verticalLabelPosition=bottom;shadow=0;dashed=0;align=center;html=1;verticalAlign=top;shape=mxgraph.electrical.transistors.pnp_transistor_5;rotation=-90;" parent="1" vertex="1">
          <mxGeometry x="260" y="270" width="64" height="100" as="geometry" />
        </mxCell>
        <mxCell id="KZxnEmZPfIo_MnsrIYCo-3" value="" style="verticalLabelPosition=bottom;shadow=0;dashed=0;align=center;fillColor=strokeColor;html=1;verticalAlign=top;strokeWidth=1;shape=mxgraph.electrical.miscellaneous.monocell_battery;rotation=-90;" parent="1" vertex="1">
          <mxGeometry x="10" y="220" width="100" height="60" as="geometry" />
        </mxCell>
        <mxCell id="KZxnEmZPfIo_MnsrIYCo-4" value="+5V" style="text;html=1;align=center;verticalAlign=middle;resizable=0;points=[];autosize=1;strokeColor=none;fillColor=none;" parent="1" vertex="1">
          <mxGeometry x="45" y="218" width="50" height="30" as="geometry" />
        </mxCell>
        <mxCell id="KZxnEmZPfIo_MnsrIYCo-5" value="-" style="text;html=1;align=center;verticalAlign=middle;resizable=0;points=[];autosize=1;strokeColor=none;fillColor=none;" parent="1" vertex="1">
          <mxGeometry x="55" y="248" width="30" height="30" as="geometry" />
        </mxCell>
        <mxCell id="KZxnEmZPfIo_MnsrIYCo-7" style="edgeStyle=orthogonalEdgeStyle;shape=connector;rounded=0;orthogonalLoop=1;jettySize=auto;html=1;entryX=1;entryY=0;entryDx=0;entryDy=0;entryPerimeter=0;labelBackgroundColor=default;strokeColor=#b85450;align=center;verticalAlign=middle;fontFamily=Helvetica;fontSize=11;fontColor=default;endArrow=none;endFill=0;exitX=1;exitY=0.5;exitDx=0;exitDy=0;exitPerimeter=0;fillColor=#f8cecc;" parent="1" source="KZxnEmZPfIo_MnsrIYCo-3" target="KZxnEmZPfIo_MnsrIYCo-1" edge="1">
          <mxGeometry relative="1" as="geometry">
            <Array as="points">
              <mxPoint x="60" y="180" />
              <mxPoint x="200" y="180" />
              <mxPoint x="200" y="288" />
            </Array>
          </mxGeometry>
        </mxCell>
        <mxCell id="KZxnEmZPfIo_MnsrIYCo-8" value="" style="verticalLabelPosition=bottom;shadow=0;dashed=0;align=center;html=1;verticalAlign=top;shape=mxgraph.electrical.opto_electronics.led_2;pointerEvents=1;fontFamily=Helvetica;fontSize=11;fontColor=default;" parent="1" vertex="1">
          <mxGeometry x="420" y="50" width="100" height="70" as="geometry" />
        </mxCell>
        <mxCell id="KZxnEmZPfIo_MnsrIYCo-9" style="edgeStyle=orthogonalEdgeStyle;shape=connector;rounded=0;orthogonalLoop=1;jettySize=auto;html=1;exitX=1;exitY=1;exitDx=0;exitDy=0;exitPerimeter=0;entryX=0;entryY=0.57;entryDx=0;entryDy=0;entryPerimeter=0;labelBackgroundColor=default;strokeColor=#b85450;align=center;verticalAlign=middle;fontFamily=Helvetica;fontSize=11;fontColor=default;endArrow=none;endFill=0;fillColor=#f8cecc;" parent="1" source="KZxnEmZPfIo_MnsrIYCo-1" target="KZxnEmZPfIo_MnsrIYCo-8" edge="1">
          <mxGeometry relative="1" as="geometry" />
        </mxCell>
        <mxCell id="KZxnEmZPfIo_MnsrIYCo-10" value="" style="pointerEvents=1;verticalLabelPosition=bottom;shadow=0;dashed=0;align=center;html=1;verticalAlign=top;shape=mxgraph.electrical.resistors.resistor_2;fontFamily=Helvetica;fontSize=11;fontColor=default;" parent="1" vertex="1">
          <mxGeometry x="520" y="80" width="100" height="20" as="geometry" />
        </mxCell>
        <mxCell id="KZxnEmZPfIo_MnsrIYCo-11" value="10K Ohm" style="text;html=1;align=center;verticalAlign=middle;resizable=0;points=[];autosize=1;strokeColor=none;fillColor=none;fontSize=11;fontFamily=Helvetica;fontColor=default;" parent="1" vertex="1">
          <mxGeometry x="530" y="60" width="70" height="30" as="geometry" />
        </mxCell>
        <mxCell id="KZxnEmZPfIo_MnsrIYCo-13" value="2N3906" style="text;html=1;align=center;verticalAlign=middle;resizable=0;points=[];autosize=1;strokeColor=none;fillColor=none;fontSize=11;fontFamily=Helvetica;fontColor=default;" parent="1" vertex="1">
          <mxGeometry x="262" y="280" width="60" height="30" as="geometry" />
        </mxCell>
        <mxCell id="KZxnEmZPfIo_MnsrIYCo-14" style="edgeStyle=orthogonalEdgeStyle;shape=connector;rounded=0;orthogonalLoop=1;jettySize=auto;html=1;exitX=1;exitY=0.5;exitDx=0;exitDy=0;exitPerimeter=0;entryX=0;entryY=0.5;entryDx=0;entryDy=0;entryPerimeter=0;labelBackgroundColor=default;align=center;verticalAlign=middle;fontFamily=Helvetica;fontSize=11;fontColor=default;endArrow=none;endFill=0;fillColor=#dae8fc;strokeColor=#6c8ebf;" parent="1" source="KZxnEmZPfIo_MnsrIYCo-10" target="KZxnEmZPfIo_MnsrIYCo-3" edge="1">
          <mxGeometry relative="1" as="geometry">
            <Array as="points">
              <mxPoint x="640" y="90" />
              <mxPoint x="640" y="720" />
              <mxPoint x="60" y="720" />
            </Array>
          </mxGeometry>
        </mxCell>
        <mxCell id="cYigWB0ItyiB_NDvOvtC-30" style="edgeStyle=orthogonalEdgeStyle;shape=connector;rounded=0;orthogonalLoop=1;jettySize=auto;html=1;exitX=0;exitY=0.5;exitDx=0;exitDy=0;exitPerimeter=0;labelBackgroundColor=default;strokeColor=#9673a6;align=center;verticalAlign=middle;fontFamily=Helvetica;fontSize=11;fontColor=default;endArrow=none;endFill=0;fillColor=#e1d5e7;" parent="1" edge="1">
          <mxGeometry relative="1" as="geometry">
            <mxPoint x="292" y="523" as="targetPoint" />
            <mxPoint x="292" y="443" as="sourcePoint" />
          </mxGeometry>
        </mxCell>
        <mxCell id="KZxnEmZPfIo_MnsrIYCo-15" value="" style="pointerEvents=1;verticalLabelPosition=bottom;shadow=0;dashed=0;align=center;html=1;verticalAlign=top;shape=mxgraph.electrical.resistors.resistor_2;fontFamily=Helvetica;fontSize=11;fontColor=default;rotation=-90;" parent="1" vertex="1">
          <mxGeometry x="242" y="390" width="100" height="20" as="geometry" />
        </mxCell>
        <mxCell id="cYigWB0ItyiB_NDvOvtC-1" value="" style="verticalLabelPosition=bottom;shadow=0;dashed=0;align=center;html=1;verticalAlign=top;shape=mxgraph.electrical.transistors.pnp_transistor_5;rotation=-90;" parent="1" vertex="1">
          <mxGeometry x="478" y="320" width="64" height="100" as="geometry" />
        </mxCell>
        <mxCell id="cYigWB0ItyiB_NDvOvtC-2" value="2N3906" style="text;html=1;align=center;verticalAlign=middle;resizable=0;points=[];autosize=1;strokeColor=none;fillColor=none;fontSize=11;fontFamily=Helvetica;fontColor=default;" parent="1" vertex="1">
          <mxGeometry x="480" y="330" width="60" height="30" as="geometry" />
        </mxCell>
        <mxCell id="cYigWB0ItyiB_NDvOvtC-3" value="" style="pointerEvents=1;verticalLabelPosition=bottom;shadow=0;dashed=0;align=center;html=1;verticalAlign=top;shape=mxgraph.electrical.resistors.resistor_2;fontFamily=Helvetica;fontSize=11;fontColor=default;rotation=-90;" parent="1" vertex="1">
          <mxGeometry x="460" y="440" width="100" height="20" as="geometry" />
        </mxCell>
        <mxCell id="cYigWB0ItyiB_NDvOvtC-4" style="edgeStyle=orthogonalEdgeStyle;rounded=0;orthogonalLoop=1;jettySize=auto;html=1;exitX=1;exitY=0;exitDx=0;exitDy=0;exitPerimeter=0;entryX=1;entryY=0;entryDx=0;entryDy=0;entryPerimeter=0;endArrow=none;endFill=0;fillColor=#f8cecc;strokeColor=#b85450;" parent="1" source="KZxnEmZPfIo_MnsrIYCo-1" target="cYigWB0ItyiB_NDvOvtC-1" edge="1">
          <mxGeometry relative="1" as="geometry">
            <Array as="points">
              <mxPoint x="200" y="288" />
              <mxPoint x="200" y="470" />
              <mxPoint x="460" y="470" />
            </Array>
          </mxGeometry>
        </mxCell>
        <mxCell id="cYigWB0ItyiB_NDvOvtC-5" value="" style="verticalLabelPosition=bottom;shadow=0;dashed=0;align=center;html=1;verticalAlign=top;shape=mxgraph.electrical.opto_electronics.led_2;pointerEvents=1;fontFamily=Helvetica;fontSize=11;fontColor=default;" parent="1" vertex="1">
          <mxGeometry x="440" y="170" width="100" height="70" as="geometry" />
        </mxCell>
        <mxCell id="cYigWB0ItyiB_NDvOvtC-6" value="" style="pointerEvents=1;verticalLabelPosition=bottom;shadow=0;dashed=0;align=center;html=1;verticalAlign=top;shape=mxgraph.electrical.resistors.resistor_2;fontFamily=Helvetica;fontSize=11;fontColor=default;" parent="1" vertex="1">
          <mxGeometry x="540" y="200" width="100" height="20" as="geometry" />
        </mxCell>
        <mxCell id="cYigWB0ItyiB_NDvOvtC-7" value="10K Ohm" style="text;html=1;align=center;verticalAlign=middle;resizable=0;points=[];autosize=1;strokeColor=none;fillColor=none;fontSize=11;fontFamily=Helvetica;fontColor=default;" parent="1" vertex="1">
          <mxGeometry x="550" y="180" width="70" height="30" as="geometry" />
        </mxCell>
        <mxCell id="cYigWB0ItyiB_NDvOvtC-8" style="edgeStyle=orthogonalEdgeStyle;shape=connector;rounded=0;orthogonalLoop=1;jettySize=auto;html=1;exitX=1;exitY=1;exitDx=0;exitDy=0;exitPerimeter=0;entryX=0;entryY=0.57;entryDx=0;entryDy=0;entryPerimeter=0;labelBackgroundColor=default;strokeColor=#b85450;align=center;verticalAlign=middle;fontFamily=Helvetica;fontSize=11;fontColor=default;endArrow=none;endFill=0;fillColor=#f8cecc;" parent="1" source="cYigWB0ItyiB_NDvOvtC-1" target="cYigWB0ItyiB_NDvOvtC-5" edge="1">
          <mxGeometry relative="1" as="geometry">
            <Array as="points">
              <mxPoint x="560" y="280" />
              <mxPoint x="420" y="280" />
              <mxPoint x="420" y="210" />
            </Array>
          </mxGeometry>
        </mxCell>
        <mxCell id="cYigWB0ItyiB_NDvOvtC-10" value="2N3904" style="text;html=1;align=center;verticalAlign=middle;resizable=0;points=[];autosize=1;strokeColor=none;fillColor=none;fontSize=11;fontFamily=Helvetica;fontColor=default;" parent="1" vertex="1">
          <mxGeometry x="430" y="491" width="60" height="30" as="geometry" />
        </mxCell>
        <mxCell id="cYigWB0ItyiB_NDvOvtC-28" style="edgeStyle=orthogonalEdgeStyle;shape=connector;rounded=0;orthogonalLoop=1;jettySize=auto;html=1;exitX=0;exitY=0.5;exitDx=0;exitDy=0;exitPerimeter=0;entryX=0;entryY=0.5;entryDx=0;entryDy=0;labelBackgroundColor=default;strokeColor=#9673a6;align=center;verticalAlign=middle;fontFamily=Helvetica;fontSize=11;fontColor=default;endArrow=none;endFill=0;fillColor=#e1d5e7;" parent="1" source="cYigWB0ItyiB_NDvOvtC-11" target="cYigWB0ItyiB_NDvOvtC-16" edge="1">
          <mxGeometry relative="1" as="geometry" />
        </mxCell>
        <mxCell id="cYigWB0ItyiB_NDvOvtC-11" value="" style="pointerEvents=1;verticalLabelPosition=bottom;shadow=0;dashed=0;align=center;html=1;verticalAlign=top;shape=mxgraph.electrical.resistors.resistor_2;fontFamily=Helvetica;fontSize=11;fontColor=default;rotation=-90;" parent="1" vertex="1">
          <mxGeometry x="410" y="602" width="100" height="20" as="geometry" />
        </mxCell>
        <mxCell id="cYigWB0ItyiB_NDvOvtC-36" style="edgeStyle=orthogonalEdgeStyle;shape=connector;rounded=0;orthogonalLoop=1;jettySize=auto;html=1;exitX=1;exitY=0;exitDx=0;exitDy=0;exitPerimeter=0;labelBackgroundColor=default;strokeColor=#6c8ebf;align=center;verticalAlign=middle;fontFamily=Helvetica;fontSize=11;fontColor=default;endArrow=none;endFill=0;fillColor=#dae8fc;" parent="1" source="cYigWB0ItyiB_NDvOvtC-12" edge="1">
          <mxGeometry relative="1" as="geometry">
            <mxPoint x="380" y="720" as="targetPoint" />
            <Array as="points">
              <mxPoint x="381" y="500" />
            </Array>
          </mxGeometry>
        </mxCell>
        <mxCell id="cYigWB0ItyiB_NDvOvtC-12" value="" style="verticalLabelPosition=bottom;shadow=0;dashed=0;align=center;html=1;verticalAlign=top;shape=mxgraph.electrical.transistors.npn_transistor_5;fontFamily=Helvetica;fontSize=11;fontColor=default;rotation=-90;" parent="1" vertex="1">
          <mxGeometry x="428" y="482" width="64" height="100" as="geometry" />
        </mxCell>
        <mxCell id="cYigWB0ItyiB_NDvOvtC-13" value="100K Ohm" style="text;html=1;align=center;verticalAlign=middle;resizable=0;points=[];autosize=1;strokeColor=none;fillColor=none;fontSize=11;fontFamily=Helvetica;fontColor=default;rotation=-90;" parent="1" vertex="1">
          <mxGeometry x="452" y="432" width="80" height="30" as="geometry" />
        </mxCell>
        <mxCell id="cYigWB0ItyiB_NDvOvtC-14" value="100K Ohm" style="text;html=1;align=center;verticalAlign=middle;resizable=0;points=[];autosize=1;strokeColor=none;fillColor=none;fontSize=11;fontFamily=Helvetica;fontColor=default;rotation=-90;" parent="1" vertex="1">
          <mxGeometry x="403" y="594" width="80" height="30" as="geometry" />
        </mxCell>
        <mxCell id="cYigWB0ItyiB_NDvOvtC-22" style="edgeStyle=orthogonalEdgeStyle;shape=connector;rounded=0;orthogonalLoop=1;jettySize=auto;html=1;exitX=1;exitY=0.12;exitDx=0;exitDy=0;labelBackgroundColor=default;strokeColor=default;align=center;verticalAlign=middle;fontFamily=Helvetica;fontSize=11;fontColor=default;endArrow=none;endFill=0;" parent="1" source="cYigWB0ItyiB_NDvOvtC-16" edge="1">
          <mxGeometry relative="1" as="geometry">
            <mxPoint x="60" y="533" as="targetPoint" />
          </mxGeometry>
        </mxCell>
        <mxCell id="cYigWB0ItyiB_NDvOvtC-16" value="" style="html=1;shape=mxgraph.electrical.electro-mechanical.twoWaySwitch;aspect=fixed;elSwitchState=2;fontFamily=Helvetica;fontSize=11;fontColor=default;rotation=-180;" parent="1" vertex="1">
          <mxGeometry x="150" y="510" width="75" height="26" as="geometry" />
        </mxCell>
        <mxCell id="cYigWB0ItyiB_NDvOvtC-20" style="edgeStyle=orthogonalEdgeStyle;shape=connector;rounded=0;orthogonalLoop=1;jettySize=auto;html=1;exitX=0;exitY=0.5;exitDx=0;exitDy=0;exitPerimeter=0;labelBackgroundColor=default;strokeColor=#6c8ebf;align=center;verticalAlign=middle;fontFamily=Helvetica;fontSize=11;fontColor=default;endArrow=none;endFill=0;fillColor=#dae8fc;" parent="1" source="cYigWB0ItyiB_NDvOvtC-17" edge="1">
          <mxGeometry relative="1" as="geometry">
            <mxPoint x="60" y="436" as="targetPoint" />
            <Array as="points">
              <mxPoint x="90" y="436" />
              <mxPoint x="90" y="436" />
            </Array>
          </mxGeometry>
        </mxCell>
        <mxCell id="cYigWB0ItyiB_NDvOvtC-21" style="edgeStyle=orthogonalEdgeStyle;shape=connector;rounded=0;orthogonalLoop=1;jettySize=auto;html=1;exitX=1;exitY=0.5;exitDx=0;exitDy=0;exitPerimeter=0;entryX=1;entryY=0.88;entryDx=0;entryDy=0;labelBackgroundColor=default;strokeColor=#b85450;align=center;verticalAlign=middle;fontFamily=Helvetica;fontSize=11;fontColor=default;endArrow=none;endFill=0;fillColor=#f8cecc;" parent="1" source="cYigWB0ItyiB_NDvOvtC-17" target="cYigWB0ItyiB_NDvOvtC-16" edge="1">
          <mxGeometry relative="1" as="geometry">
            <Array as="points">
              <mxPoint x="105" y="316" />
              <mxPoint x="150" y="316" />
            </Array>
          </mxGeometry>
        </mxCell>
        <mxCell id="cYigWB0ItyiB_NDvOvtC-17" value="" style="verticalLabelPosition=bottom;shadow=0;dashed=0;align=center;fillColor=strokeColor;html=1;verticalAlign=top;strokeWidth=1;shape=mxgraph.electrical.miscellaneous.monocell_battery;rotation=-90;" parent="1" vertex="1">
          <mxGeometry x="55" y="356" width="100" height="60" as="geometry" />
        </mxCell>
        <mxCell id="cYigWB0ItyiB_NDvOvtC-18" value="+3.3V" style="text;html=1;align=center;verticalAlign=middle;resizable=0;points=[];autosize=1;strokeColor=none;fillColor=none;" parent="1" vertex="1">
          <mxGeometry x="91" y="356" width="60" height="30" as="geometry" />
        </mxCell>
        <mxCell id="cYigWB0ItyiB_NDvOvtC-19" value="-" style="text;html=1;align=center;verticalAlign=middle;resizable=0;points=[];autosize=1;strokeColor=none;fillColor=none;" parent="1" vertex="1">
          <mxGeometry x="99" y="386" width="30" height="30" as="geometry" />
        </mxCell>
        <mxCell id="cYigWB0ItyiB_NDvOvtC-23" value="40K Ohm" style="text;html=1;align=center;verticalAlign=middle;resizable=0;points=[];autosize=1;strokeColor=none;fillColor=none;fontSize=11;fontFamily=Helvetica;fontColor=default;rotation=-90;" parent="1" vertex="1">
          <mxGeometry x="239" y="382" width="70" height="30" as="geometry" />
        </mxCell>
        <mxCell id="cYigWB0ItyiB_NDvOvtC-32" value="" style="pointerEvents=1;verticalLabelPosition=bottom;shadow=0;dashed=0;align=center;html=1;verticalAlign=top;shape=mxgraph.electrical.resistors.resistor_2;fontFamily=Helvetica;fontSize=11;fontColor=default;rotation=-90;" parent="1" vertex="1">
          <mxGeometry x="181" y="328" width="100" height="20" as="geometry" />
        </mxCell>
        <mxCell id="cYigWB0ItyiB_NDvOvtC-33" value="10K Ohm" style="text;html=1;align=center;verticalAlign=middle;resizable=0;points=[];autosize=1;strokeColor=none;fillColor=none;fontSize=11;fontFamily=Helvetica;fontColor=default;rotation=-90;" parent="1" vertex="1">
          <mxGeometry x="180" y="324" width="70" height="30" as="geometry" />
        </mxCell>
        <mxCell id="cYigWB0ItyiB_NDvOvtC-34" style="edgeStyle=orthogonalEdgeStyle;shape=connector;rounded=0;orthogonalLoop=1;jettySize=auto;html=1;exitX=0;exitY=0.5;exitDx=0;exitDy=0;exitPerimeter=0;entryX=1;entryY=0.5;entryDx=0;entryDy=0;entryPerimeter=0;labelBackgroundColor=default;strokeColor=#b85450;align=center;verticalAlign=middle;fontFamily=Helvetica;fontSize=11;fontColor=default;endArrow=none;endFill=0;fillColor=#f8cecc;" parent="1" source="cYigWB0ItyiB_NDvOvtC-32" target="KZxnEmZPfIo_MnsrIYCo-15" edge="1">
          <mxGeometry relative="1" as="geometry">
            <Array as="points">
              <mxPoint x="231" y="390" />
              <mxPoint x="260" y="390" />
              <mxPoint x="260" y="330" />
              <mxPoint x="292" y="330" />
            </Array>
          </mxGeometry>
        </mxCell>
        <mxCell id="cYigWB0ItyiB_NDvOvtC-37" value="Turn by LOW" style="text;html=1;align=center;verticalAlign=middle;resizable=0;points=[];autosize=1;strokeColor=none;fillColor=none;fontSize=11;fontFamily=Helvetica;fontColor=default;" parent="1" vertex="1">
          <mxGeometry x="452" y="20" width="90" height="30" as="geometry" />
        </mxCell>
        <mxCell id="cYigWB0ItyiB_NDvOvtC-38" value="Turn by HIGH or Nothing" style="text;html=1;align=center;verticalAlign=middle;resizable=0;points=[];autosize=1;strokeColor=none;fillColor=none;fontSize=11;fontFamily=Helvetica;fontColor=default;" parent="1" vertex="1">
          <mxGeometry x="445" y="140" width="140" height="30" as="geometry" />
        </mxCell>
      </root>
    </mxGraphModel>
  </diagram>
</mxfile>
